Kyle XY S01

Encoded for PSP, iPod, and Zune. 

Enjoy and please help me seed, so I can release more stuff faster! (^_^)

Show Nfo - A Seattle family takes in an amnesiac teen (Dallas), whom they eventually learn has mysterious powers and psychic abilities, the result of a secret human cloning experiment conducted years earlier. The family helps teach Kyle human behaviors such as anger, joy and love, and guards him against forces who seek to use Kyle for their own nefarious purposes.

Video Specs:
Format                           : MPEG-4
Codec ID                         : M4V 
File size                        : 194 MiB
Duration                         : 42mn 57s
Overall bit rate                 : 633 Kbps
Movie name                       : Pilot
Encoded date                     : 2010
Writing application              : Lavf52.33.0

Video
ID                               : 1
Format                           : AVC
Format/Info                      : Advanced Video Codec
Format profile                   : Baseline@L1.3
Format settings, CABAC           : No
Format settings, ReFrames        : 1 frame
Codec ID                         : avc1
Codec ID/Info                    : Advanced Video Coding
Duration                         : 42mn 57s
Bit rate mode                    : Variable
Bit rate                         : 500 Kbps
Width                            : 320 pixels
Height                           : 240 pixels
Display aspect ratio             : 4:3
Frame rate mode                  : Constant
Frame rate                       : 29.970 fps
Color space                      : YUV
Chroma subsampling               : 4:2:0
Bit depth                        : 8 bits
Scan type                        : Progressive
Bits/(Pixel*Frame)               : 0.217
Stream size                      : 154 MiB (79%)

Audio
ID                               : 2
Format                           : AAC
Format/Info                      : Advanced Audio Codec
Format version                   : Version 4
Format profile                   : LC
Format settings, SBR             : No
Codec ID                         : 40
Duration                         : 42mn 57s
Bit rate mode                    : Variable
Bit rate                         : 128 Kbps
Channel(s)                       : 2 channels
Channel positions                : Front: L R
Sampling rate                    : 48.0 KHz
Stream size                      : 39.2 MiB (20%)

If you need/want to get in touch with me (request, reseed, etc.). Send an email to movi3sdir3ct@hotbox.ru

Please seed when finished downloading and leave a comment, request, etc. And above all ENJOY!

If anyone would like any tv show, movie, music video, or yes, even XXX, for PSP iPod Zune or any other handheld device for that matter. I would be more than happy to do it for you. Just leave a comment or send an email to movi3sdir3ct@hotbox.ru 	